<?xml version="1.0" standalone="no"?>
<!DOCTYPE svg PUBLIC "-//W3C//DTD SVG 20010904//EN"
 "http://www.w3.org/TR/2001/REC-SVG-20010904/DTD/svg10.dtd">
<svg version="1.0" xmlns="http://www.w3.org/2000/svg"
 width="1349.000000pt" height="557.000000pt" viewBox="0 0 1349.000000 557.000000"
 preserveAspectRatio="xMidYMid meet">
<metadata>
Created by potrace 1.16, written by Peter Selinger 2001-2019
</metadata>
<g transform="translate(0.000000,557.000000) scale(0.100000,-0.100000)"
fill="#000000" stroke="none">
<path d="M0 2785 l0 -2785 6745 0 6745 0 0 2785 0 2785 -6745 0 -6745 0 0
-2785z m5230 645 c20 -20 20 -33 20 -670 l0 -651 -25 -24 c-29 -30 -54 -32
-83 -5 l-22 21 0 654 c0 642 0 655 20 675 11 11 31 20 45 20 14 0 34 -9 45
-20z m830 -82 c20 -21 20 -32 20 -588 0 -630 2 -610 -65 -610 -67 0 -65 -20
-65 610 0 586 0 589 40 603 30 11 50 7 70 -15z m1662 5 c17 -15 18 -47 18
-590 0 -377 -4 -581 -10 -594 -12 -22 -78 -27 -98 -7 -9 9 -12 156 -12 600 0
548 1 588 18 597 26 16 63 13 84 -6z m-827 -14 c6 -7 10 -213 10 -579 0 -517
-2 -571 -17 -586 -23 -24 -68 -21 -90 6 -17 21 -18 56 -18 579 1 573 1 578 40
594 18 7 61 -1 75 -14z m-4207 -214 c-2 -80 -2 -145 -1 -145 1 0 22 14 46 31
80 56 217 47 280 -19 51 -53 70 -117 70 -227 0 -111 -18 -170 -70 -223 -77
-79 -222 -83 -300 -10 -25 23 -38 18 -45 -17 -2 -15 -11 -20 -33 -20 l-30 0
-3 388 -2 387 46 0 45 0 -3 -145z m-947 13 c29 -46 98 -153 154 -238 55 -85
116 -179 135 -207 18 -29 36 -53 40 -53 3 0 6 129 5 288 l0 287 40 0 40 0 0
-360 0 -360 -48 -3 -47 -3 -116 178 c-64 98 -151 231 -193 295 -42 65 -78 118
-81 118 -3 0 -5 -132 -5 -292 l0 -293 -37 -3 -38 -3 0 365 0 366 49 0 49 0 53
-82z m6954 71 c68 -17 125 -51 166 -97 21 -25 39 -50 39 -56 0 -6 8 -24 17
-41 14 -24 18 -55 18 -156 0 -77 -4 -131 -11 -140 -6 -8 -14 -25 -17 -39 -9
-36 -71 -106 -122 -135 -67 -40 -137 -53 -287 -55 l-138 -1 0 366 0 365 148 0
c81 0 165 -5 187 -11z m-557 -176 c9 -13 12 -85 12 -278 0 -248 -1 -263 -20
-280 -24 -22 -67 -23 -88 -1 -15 15 -17 50 -20 276 l-3 260 26 26 c20 20 32
24 53 19 15 -3 33 -13 40 -22z m-4355 1 c91 -31 110 -95 105 -359 l-3 -180
-29 -3 c-31 -4 -46 10 -46 46 0 29 -5 28 -53 -13 -46 -39 -84 -49 -163 -43
-180 15 -208 253 -36 313 26 9 91 19 146 22 l98 6 -5 50 c-3 40 -11 56 -33 75
-25 22 -35 24 -99 20 -39 -3 -86 -12 -104 -21 -31 -16 -32 -15 -41 9 -18 45
-12 53 53 73 76 24 148 26 210 5z m570 0 c91 -31 110 -95 105 -359 l-3 -180
-29 -3 c-31 -4 -46 10 -46 46 0 29 -5 28 -53 -13 -46 -39 -84 -49 -163 -43
-180 15 -208 253 -36 313 26 9 91 19 146 22 l98 6 -5 50 c-3 40 -11 56 -33 75
-25 22 -35 24 -99 20 -39 -3 -86 -12 -104 -21 -31 -16 -32 -15 -41 9 -18 45
-12 53 53 73 76 24 148 26 210 5z m2121 0 c14 -14 16 -50 14 -282 l-3 -266
-27 -16 c-25 -13 -31 -13 -55 0 l-28 16 -3 266 c-3 293 -2 298 58 298 16 0 36
-7 44 -16z m2897 4 c87 -30 136 -103 141 -213 l3 -70 -182 -3 -183 -2 0 -40
c0 -53 40 -117 85 -136 45 -18 139 -18 201 1 65 20 64 20 64 -20 0 -31 -4 -37
-37 -51 -21 -9 -73 -18 -115 -21 -132 -9 -215 33 -264 134 -25 50 -29 69 -28
148 0 76 4 99 26 146 51 112 175 166 289 127z m1384 -2 c34 -10 40 -16 37 -37
-5 -43 -21 -50 -82 -34 -45 12 -63 12 -95 2 -55 -17 -68 -26 -95 -71 -21 -34
-24 -51 -23 -131 1 -103 13 -136 65 -180 31 -26 36 -27 108 -22 41 4 87 9 103
13 25 6 27 4 27 -23 0 -51 -29 -67 -127 -70 -63 -2 -95 2 -122 14 -57 26 -109
81 -128 137 -21 63 -23 184 -4 251 19 63 90 138 147 153 53 14 141 13 189 -2z
m446 2 c87 -30 136 -103 141 -213 l3 -70 -182 -3 -183 -2 0 -40 c0 -53 40
-117 85 -136 45 -18 139 -18 201 1 65 20 64 20 64 -20 0 -31 -4 -37 -37 -51
-21 -9 -73 -18 -115 -21 -132 -9 -215 33 -264 134 -25 50 -29 69 -28 148 0 76
4 99 26 146 51 112 175 166 289 127z m602 -11 l37 -16 -17 -35 c-14 -31 -18
-34 -37 -23 -12 6 -64 11 -119 12 -86 0 -100 -2 -113 -19 -37 -51 -3 -89 121
-137 61 -23 102 -46 130 -74 37 -35 42 -46 44 -88 2 -64 -29 -110 -96 -143
-49 -24 -60 -26 -145 -21 -121 7 -148 19 -148 71 0 35 2 38 23 32 102 -32 135
-37 183 -31 63 8 94 33 94 79 0 40 -18 57 -95 91 -33 15 -82 36 -109 48 -63
28 -96 71 -96 125 0 23 5 51 11 64 12 27 63 65 105 78 42 14 183 5 227 -13z
m-9373 -262 l0 -275 -45 0 -45 0 0 275 0 275 45 0 45 0 0 -275z m890 -1 l0
-275 -42 3 -43 3 -3 273 -2 272 45 0 45 0 0 -276z m6358 249 c19 -49 100 -276
122 -343 11 -36 23 -72 26 -80 3 -8 42 89 87 215 l83 230 46 3 47 3 -9 -33
c-6 -18 -14 -42 -19 -53 -5 -11 -24 -58 -41 -105 -18 -47 -48 -125 -67 -175
-19 -49 -43 -110 -52 -135 -17 -44 -18 -45 -67 -48 l-50 -3 -48 128 c-48 128
-129 338 -147 381 -15 37 -11 42 35 42 38 0 45 -3 54 -27z m582 -248 l0 -275
-45 0 -45 0 0 275 0 275 45 0 45 0 0 -275z m-5446 199 c13 -13 16 -46 16 -209
l0 -195 -25 -16 c-27 -17 -73 -12 -87 9 -13 21 -9 402 4 415 17 17 74 15 92
-4z"/>
<path d="M2764 2960 c-12 -4 -31 -26 -44 -47 -21 -34 -24 -51 -24 -150 -1
-122 6 -142 67 -187 38 -28 126 -28 164 0 90 65 97 297 12 368 -26 22 -40 26
-92 25 -34 0 -71 -4 -83 -9z"/>
<path d="M8533 3142 l-83 -3 0 -284 0 -285 83 0 c150 0 234 41 283 138 26 51
29 66 28 152 -1 109 -20 164 -75 217 -57 54 -114 69 -236 65z"/>
<path d="M3642 2749 c-17 -3 -45 -15 -64 -26 -30 -17 -33 -24 -36 -74 -4 -74
16 -94 98 -94 50 0 64 5 97 31 41 33 62 78 62 135 l1 36 -64 -1 c-35 -1 -77
-4 -94 -7z"/>
<path d="M4212 2749 c-17 -3 -45 -15 -64 -26 -30 -17 -33 -24 -36 -74 -4 -74
16 -94 98 -94 50 0 64 5 97 31 41 33 62 78 62 135 l1 36 -64 -1 c-35 -1 -77
-4 -94 -7z"/>
<path d="M9252 2967 c-34 -6 -49 -17 -72 -49 -17 -23 -30 -54 -30 -70 l0 -28
136 0 137 0 -6 46 c-9 81 -73 120 -165 101z"/>
<path d="M11082 2967 c-34 -6 -49 -17 -72 -49 -17 -23 -30 -54 -30 -70 l0 -28
136 0 137 0 -6 46 c-9 81 -73 120 -165 101z"/>
</g>
</svg>
