<svg id="Capa_1" enable-background="new 0 0 509.86 509.86" height="512" viewBox="0 0 509.86 509.86" width="512" xmlns="http://www.w3.org/2000/svg"><g><g><circle cx="254.929" cy="254.93" fill="#ccf49f" r="170.48"/><path d="m244.659 134.509-98.118 109.1c-7.081 7.873-1.493 20.414 9.096 20.414h44.36c8.482 0 14.39 8.422 11.503 16.398l-29.891 82.557c-3.125 8.632 3.403 15.835 10.698 16.439 3.528.292 22.727.031 22.727.031l105.506-142.921c6.771-7.942 1.127-20.17-9.309-20.17h-46.47c-7.861 0-13.682-7.308-11.923-14.969l24.423-70.795s-15.568-.193-22.33-.12c-3.582.039-7.337.773-10.272 4.036z" fill="#b3e59f"/><path d="m254.929 84.45c-3.611 0-7.192.126-10.748.347 89.145 5.547 159.732 79.591 159.732 170.133s-70.588 164.586-159.732 170.133c3.555.221 7.137.347 10.748.347 94.154 0 170.48-76.326 170.48-170.48s-76.327-170.48-170.48-170.48z" fill="#b3e59f"/><path d="m266.154 134.509-98.118 109.1c-7.081 7.873-1.493 20.414 9.096 20.414h44.36c8.482 0 14.39 8.422 11.503 16.398l-29.891 82.557c-4.637 12.807 11.975 22.466 20.812 12.101l118.119-138.552c6.771-7.942 1.127-20.17-9.309-20.17h-46.47c-7.861 0-13.682-7.308-11.923-14.969l12.842-55.963c2.822-12.304-12.579-20.303-21.021-10.916z" fill="#ffd15b"/><g fill="#ffc344"><path d="m265.678 145.426-12.842 55.963c-1.758 7.662 4.063 14.969 11.923 14.969h21.495c-7.861 0-13.682-7.308-11.923-14.969l12.842-55.963c2.824-12.305-12.578-20.303-21.019-10.916l-1.783 1.982c1.472 2.466 2.087 5.534 1.307 8.934z"/><path d="m332.725 216.358h-21.495c10.436 0 16.08 12.228 9.31 20.17l-109.469 128.9c-2.447 2.87-5.49 4.2-8.514 4.357 1.911 8.934 14.192 13.701 21.359 5.294l118.119-138.552c6.771-7.941 1.127-20.169-9.31-20.169z"/></g></g><g><path d="m196.052 360.425c-3.303 9.123.248 18.9 8.636 23.777 8.269 4.834 18.6 3.189 24.936-4.256l118.119-138.552c5.053-5.927 6.164-14.001 2.9-21.072s-10.129-11.463-17.917-11.463h-46.471c-3.67-.55-4.898-2.091-4.613-5.792l12.842-55.963c5.161-19.155-21.205-32.843-33.905-17.609l-98.119 109.1c-5.284 5.875-6.569 14.009-3.353 21.227s10.123 11.702 18.025 11.702h44.359c3.915.618 5.203 2.452 4.45 6.345zm41.594-95.501c-3.689-5.26-9.729-8.401-16.154-8.401h-44.359c-4.473-.453-6.177-4.266-3.521-7.898l98.118-109.101c3.685-3.606 8.965-.872 8.134 4.224l-12.842 55.962c-1.353 5.891.031 11.98 3.797 16.708s9.392 7.439 15.436 7.439h46.471c4.425.46 6.124 4.135 3.603 7.804l-118.12 138.553c-3.758 4.015-9.686.578-8.054-4.682l29.891-82.557c2.187-6.042 1.291-12.79-2.4-18.051z"/><path d="m348.953 103.786c-28.164-17.556-60.677-26.836-94.024-26.836-98.139 0-177.98 79.841-177.98 177.98s79.842 177.98 177.98 177.98 177.98-79.841 177.98-177.98c0-49-19.495-94.655-54.895-128.556-2.991-2.866-7.738-2.763-10.604.229-2.864 2.992-2.762 7.739.229 10.604 32.417 31.045 50.27 72.853 50.27 117.723 0 89.868-73.112 162.98-162.98 162.98s-162.98-73.112-162.98-162.98 73.112-162.98 162.98-162.98c30.539 0 60.309 8.495 86.089 24.565 3.514 2.19 8.142 1.118 10.332-2.397 2.191-3.516 1.118-8.141-2.397-10.332z"/><path d="m502.477 226.855c-.462-4.116-4.163-7.082-8.289-6.617-4.116.461-7.079 4.173-6.617 8.289 14.165 109.48-59.209 220.485-165.116 250.621l8.913-31.647c1.123-3.987-1.198-8.129-5.186-9.252-3.987-1.122-8.13 1.199-9.252 5.186l-12.501 44.384c-1.133 3.736 1.163 8.046 4.917 9.162.09.029.177.065.269.091l44.384 12.502c3.879 1.125 8.142-1.165 9.252-5.186 1.123-3.987-1.198-8.13-5.186-9.253l-19.507-5.495c106.7-36.334 178.388-150.762 163.919-262.785z"/><path d="m7.363 282.805c.966 9.716 16.126 7.973 14.908-1.662-14.062-109.42 59.291-220.328 165.139-250.433l-8.913 31.646c-2.765 9.303 11.884 13.505 14.438 4.066l12.479-44.307c1.235-3.9-1.301-8.38-5.271-9.36l-44.277-12.472c-3.988-1.124-8.129 1.199-9.252 5.186s1.198 8.13 5.186 9.253l19.491 5.49c-82.336 29.299-144.3 100.473-161.018 187.491-4.517 24.6-5.799 50.149-2.91 75.102z"/><path d="m275.039 488.184c-3.905.333-7.882.573-11.82.712-101.847 4.939-200.268-63.969-230.775-160.94l31.856 8.131c4.016 1.023 8.098-1.4 9.121-5.412 1.024-4.014-1.398-8.098-5.412-9.122l-44.68-11.404c-3.921-1.079-8.263 1.55-9.147 5.515l-11.378 44.575c-1.024 4.014 1.398 8.098 5.412 9.122 3.906 1.03 8.112-1.367 9.121-5.412l5.011-19.63c16.077 41.853 43.245 78.659 78.709 106.524 45.843 36.14 104.244 55.17 162.693 53.043 4.186-.148 8.413-.403 12.564-.757 9.713-.684 8.402-15.921-1.275-14.945z"/><path d="m501.644 140.495c-4.008-1.021-8.097 1.398-9.121 5.412l-5.008 19.62c-36.091-97.319-137.501-164.603-241.404-159.555-4.436.157-8.923.434-13.338.825-9.713.713-8.35 15.948 1.32 14.941 105.793-10.992 211.617 58.875 243.324 160.162l-31.856-8.131c-4.017-1.026-8.098 1.399-9.121 5.412-1.024 4.014 1.398 8.098 5.412 9.122l44.679 11.404c3.932 1.083 8.294-1.563 9.157-5.553l11.368-44.539c1.025-4.012-1.398-8.096-5.412-9.12z"/></g></g></svg>