<?xml version="1.0" encoding="utf-8"?>
<!-- Generator: Adobe Illustrator 21.1.0, SVG Export Plug-In . SVG Version: 6.00 Build 0)  -->
<svg version="1.1" id="Layer_1" xmlns="http://www.w3.org/2000/svg" xmlns:xlink="http://www.w3.org/1999/xlink" x="0px" y="0px"
	 viewBox="0 0 202 32" style="enable-background:new 0 0 202 32;" xml:space="preserve">
<style type="text/css">
	.st0{fill:#1B3668;}
</style>
<g>
	<path class="st0" d="M15,14.5c2.5-1.3,3.4-2.9,3.4-5.8c0-2.9-1.3-5.3-3.5-6.7c-1.8-1.2-3.8-1.5-8.4-1.5H0.2v30.9h8.2
		c7.9,0,11.8-3.5,11.8-9.2C20.3,18.5,18.9,16.1,15,14.5z M5.9,6.1h2.3c3,0,4.4,1,4.4,3.1c0,2.2-1.5,3.2-4.9,3.2H5.9V6.1z M8.8,25.9
		H5.9V18h2.7c4,0,5.8,1.3,5.8,4.1C14.5,24.7,12.8,25.9,8.8,25.9z"/>
	<rect x="46.7" y="8.2" class="st0" width="5.6" height="23.1"/>
	<rect x="46.8" y="0.5" class="st0" width="5.6" height="4.3"/>
	<rect x="56.3" y="0.5" class="st0" width="5.6" height="30.9"/>
	<path class="st0" d="M83.6,10.3c-1.6-1.8-4.3-2.9-7.2-2.9c-6.5,0-11.6,5.4-11.6,12.4c0,6.8,5.1,12.2,11.6,12.2c3.1,0,5.4-1,7.6-3.5
		v3h5.1V0.5h-5.6V10.3z M77.3,26.8c-3.9,0-6.9-3.2-6.9-7.3c0-3.9,3-7,6.8-7c3.9,0,6.8,3.1,6.8,7.2C84,23.7,81,26.8,77.3,26.8z"/>
	<polygon class="st0" points="92.6,6 98.3,6 98.3,31.3 104,31.3 104,6 109.7,6 109.7,0.5 92.6,0.5 	"/>
	<path class="st0" d="M115.2,10.5V8.2h-5.1v23.1h5.6V18.5c0-3.6,1.6-5.4,5-5.5V7.7h-0.4C117.8,7.7,116.6,8.3,115.2,10.5z"/>
	<path class="st0" d="M140.4,11.3c-1.9-2.5-4.2-3.6-7.6-3.6c-6.8,0-11.8,5.1-11.8,12.2c0,7,4.9,12,11.7,12c3.3,0,5.5-1,7.7-3.5v3
		h5.1V8.2h-5.1V11.3z M133.5,26.8c-4.1,0-6.8-2.8-6.8-6.8c0-4.2,2.8-7.2,6.8-7.2c4,0,6.8,3,6.8,7.2
		C140.2,23.8,137.7,26.8,133.5,26.8z"/>
	<polygon class="st0" points="194.6,8.2 188,8.2 180.6,19.1 180.6,0.5 175,0.5 175,31.3 180.6,31.3 180.6,20.5 188.5,31.3 196,31.3 
		186.4,19.5 	"/>
	<path class="st0" d="M167.3,19.5C167.3,19.6,167.3,19.6,167.3,19.5c0,3.9-3.1,7.1-7,7.1s-7-3.1-7-7c0-3.9,3.1-7,7-7V7.5
		c-6.7,0-12.1,5.4-12.1,12.1s5.4,12.1,12.1,12.1s12.1-5.4,12.1-12.1c0,0,0,0,0-0.1H167.3z"/>
	<path class="st0" d="M159.4,20.4c0.5,0.5,1.2,0.5,1.7,0c0.3-0.3,4.6-5.8,6-7.6c0.1-0.1,0-0.2-0.1-0.1c-1.8,1.4-7.4,5.8-7.6,6
		C158.9,19.2,158.9,20,159.4,20.4z"/>
	<path class="st0" d="M37.6,22.1c0,2.6-2.1,4.7-4.7,4.7c-2.6,0-4.7-2.1-4.7-4.7V8.2h-5.6v13.4c0,5.7,4.6,10.3,10.3,10.3
		c5.7,0,10.3-4.6,10.3-10.3V8.2h-5.6V22.1z"/>
	<path class="st0" d="M198.9,0.5c-1.6,0-2.9,1.3-2.9,2.9c0,1.6,1.3,2.9,2.9,2.9c1.7,0,2.9-1.3,2.9-2.9
		C201.8,1.8,200.6,0.5,198.9,0.5z M198.9,5.6c-1.3,0-2.2-1-2.2-2.3c0-1.3,0.9-2.3,2.2-2.3c1.3,0,2.2,1,2.2,2.3
		C201.1,4.6,200.2,5.6,198.9,5.6z"/>
	<path class="st0" d="M199.6,3.4L199.6,3.4c0.3-0.1,0.6-0.4,0.6-0.7c0-0.3-0.1-0.5-0.3-0.6c-0.2-0.1-0.5-0.2-1-0.2
		c-0.5,0-0.8,0-1.1,0.1v2.9l0.7,0V3.7l0.3,0c0.4,0,0.5,0.1,0.6,0.5c0.1,0.3,0.1,0.6,0.2,0.7l0.7,0c-0.1-0.1-0.1-0.3-0.2-0.7
		C200,3.7,199.9,3.5,199.6,3.4z M198.8,3.2l-0.3,0V2.4c0.1,0,0.2,0,0.4,0c0.4,0,0.6,0.2,0.6,0.4C199.5,3.1,199.2,3.2,198.8,3.2z"/>
</g>
</svg>
